<svg width="750" height="250" viewBox="0 0 750 250" fill="none" xmlns="http://www.w3.org/2000/svg">
<path d="M648 67H604C597.373 67 592 72.3726 592 79V97C592 103.627 597.373 109 604 109H648C654.627 109 660 103.627 660 97V79C660 72.3726 654.627 67 648 67Z" fill="#579AF4"/>
<path d="M611.155 84.316V86.736H609.043V98H606.139V86.736H604.027V84.316H606.161C605.926 84.052 605.67 83.7513 605.391 83.414C605.127 83.0767 604.892 82.7687 604.687 82.49C605.42 81.302 606.139 80.3707 606.843 79.696C607.562 79.0213 608.317 78.5447 609.109 78.266C609.901 77.9727 610.774 77.826 611.727 77.826C612.431 77.826 613.098 77.8847 613.729 78.002C614.374 78.1193 615.042 78.3247 615.731 78.618C616.435 78.8967 617.212 79.278 618.063 79.762C618.914 80.2313 619.904 80.818 621.033 81.522L619.537 83.48C618.349 82.7173 617.337 82.1013 616.501 81.632C615.665 81.148 614.902 80.796 614.213 80.576C613.524 80.356 612.798 80.246 612.035 80.246C611.346 80.246 610.744 80.378 610.231 80.642C609.718 80.906 609.27 81.236 608.889 81.632C608.522 82.028 608.2 82.4387 607.921 82.864C608.053 83.0987 608.207 83.348 608.383 83.612C608.559 83.876 608.742 84.1107 608.933 84.316H611.155ZM624.987 84.316V86.736H622.875V98H619.971C619.428 97.208 618.768 96.5113 617.991 95.91C617.228 95.3087 616.377 94.81 615.439 94.414C614.5 94.0033 613.481 93.71 612.381 93.534L611.281 90.938C612.63 90.19 614.104 89.4713 615.703 88.782C617.316 88.078 618.9 87.5207 620.455 87.11L620.059 87.836V86.736H610.709V84.316H624.987ZM619.971 89.222L620.433 89.706C619.465 89.9847 618.548 90.3073 617.683 90.674C616.832 91.026 615.93 91.4293 614.977 91.884C615.578 92.0013 616.201 92.2067 616.847 92.5C617.507 92.7787 618.145 93.1453 618.761 93.6C619.391 94.0547 619.956 94.5827 620.455 95.184L620.037 95.426C620.022 95.0887 620.007 94.7513 619.993 94.414C619.978 94.0767 619.971 93.7467 619.971 93.424V89.222ZM631.673 84.316V86.736H629.561V98H626.657V86.736H624.545V84.316H626.679C626.444 84.052 626.187 83.7513 625.909 83.414C625.645 83.0767 625.41 82.7687 625.205 82.49C625.938 81.302 626.657 80.3707 627.361 79.696C628.079 79.0213 628.835 78.5447 629.627 78.266C630.419 77.9727 631.291 77.826 632.245 77.826C632.949 77.826 633.616 77.8847 634.247 78.002C634.892 78.1193 635.559 78.3247 636.249 78.618C636.953 78.8967 637.73 79.278 638.581 79.762C639.431 80.2313 640.421 80.818 641.551 81.522L640.055 83.48C638.867 82.7173 637.855 82.1013 637.019 81.632C636.183 81.148 635.42 80.796 634.731 80.576C634.041 80.356 633.315 80.246 632.553 80.246C631.863 80.246 631.262 80.378 630.749 80.642C630.235 80.906 629.788 81.236 629.407 81.632C629.04 82.028 628.717 82.4387 628.439 82.864C628.571 83.0987 628.725 83.348 628.901 83.612C629.077 83.876 629.26 84.1107 629.451 84.316H631.673ZM647.968 84.316V86.736H640.312V89.574C640.312 89.794 640.349 89.9847 640.422 90.146C640.496 90.2927 640.65 90.366 640.884 90.366C641.075 90.366 641.28 90.3 641.5 90.168C641.72 90.0213 641.94 89.8233 642.16 89.574C642.395 89.31 642.63 89.0167 642.864 88.694L645.438 88.21C645.937 88.9287 646.311 89.6547 646.56 90.388C646.81 91.1067 646.934 91.884 646.934 92.72C646.934 93.644 646.707 94.4727 646.252 95.206C645.812 95.9247 645.145 96.4967 644.25 96.922C643.37 97.3473 642.278 97.56 640.972 97.56C640.004 97.56 639.073 97.4207 638.178 97.142C637.284 96.8633 636.44 96.394 635.648 95.734C634.871 95.0593 634.152 94.1427 633.492 92.984C632.847 91.8107 632.282 90.344 631.798 88.584L634.548 87.814C635.032 89.5593 635.582 90.9673 636.198 92.038C636.814 93.094 637.496 93.864 638.244 94.348C639.007 94.8173 639.836 95.052 640.73 95.052C641.786 95.052 642.6 94.8173 643.172 94.348C643.759 93.864 644.052 93.1967 644.052 92.346C644.052 91.774 643.95 91.3047 643.744 90.938C643.539 90.5713 643.304 90.2267 643.04 89.904L645.284 89.728C644.756 90.432 644.221 91.0113 643.678 91.466C643.136 91.9207 642.586 92.258 642.028 92.478C641.486 92.698 640.921 92.808 640.334 92.808C639.865 92.808 639.447 92.742 639.08 92.61C638.714 92.4633 638.406 92.2507 638.156 91.972C637.907 91.6933 637.716 91.334 637.584 90.894C637.467 90.454 637.408 89.8893 637.408 89.2V86.736H631.226V84.316H647.968Z" fill="white"/>
<path d="M289.136 169.187V171.276H287.313V181H284.806C284.338 180.316 283.768 179.715 283.097 179.196C282.438 178.677 281.704 178.246 280.893 177.904C280.083 177.55 279.203 177.296 278.254 177.144L277.304 174.903C278.469 174.258 279.741 173.637 281.121 173.042C282.514 172.434 283.882 171.953 285.224 171.599L284.882 172.225V171.276H276.81V169.187H289.136ZM284.806 173.422L285.205 173.84C284.369 174.08 283.578 174.359 282.831 174.675C282.096 174.979 281.318 175.328 280.495 175.72C281.014 175.821 281.552 175.999 282.109 176.252C282.679 176.492 283.23 176.809 283.761 177.201C284.306 177.594 284.793 178.05 285.224 178.569L284.863 178.778C284.85 178.487 284.838 178.195 284.825 177.904C284.812 177.613 284.806 177.328 284.806 177.05V173.422ZM294.908 169.187V171.276H293.085V181H290.578V172.567C290.426 172.175 290.211 171.865 289.932 171.637C289.654 171.396 289.293 171.276 288.85 171.276H288.755V169.187H289.135C289.426 169.187 289.698 169.263 289.951 169.414C290.204 169.566 290.439 169.889 290.654 170.383C290.641 170.32 290.622 170.174 290.597 169.946C290.584 169.718 290.578 169.522 290.578 169.357V167.933H292.629L293.066 169.187H294.908ZM297.41 174.96C298.22 175.441 298.967 175.999 299.651 176.632C300.335 177.252 300.955 177.923 301.512 178.645C302.069 179.367 302.57 180.114 303.013 180.886L301.113 181.893C300.645 181.222 300.164 180.595 299.67 180.012C299.176 179.43 298.619 178.873 297.999 178.341C297.391 177.809 296.682 177.303 295.871 176.822L297.41 174.96ZM295.928 171.997C295.928 171.44 296.055 170.953 296.308 170.535C296.574 170.117 296.929 169.788 297.372 169.547C297.815 169.307 298.315 169.187 298.872 169.187C299.429 169.187 299.93 169.307 300.373 169.547C300.816 169.788 301.164 170.117 301.417 170.535C301.683 170.953 301.816 171.44 301.816 171.997C301.816 172.555 301.683 173.048 301.417 173.479C301.164 173.897 300.816 174.226 300.373 174.467C299.93 174.707 299.429 174.827 298.872 174.827C298.315 174.827 297.815 174.713 297.372 174.486C296.929 174.245 296.574 173.909 296.308 173.479C296.055 173.048 295.928 172.555 295.928 171.997ZM297.847 171.997C297.847 172.301 297.942 172.555 298.132 172.757C298.334 172.947 298.581 173.042 298.872 173.042C299.164 173.042 299.404 172.947 299.594 172.757C299.797 172.555 299.898 172.301 299.898 171.997C299.898 171.706 299.797 171.466 299.594 171.276C299.404 171.073 299.164 170.972 298.872 170.972C298.581 170.972 298.334 171.073 298.132 171.276C297.942 171.466 297.847 171.706 297.847 171.997ZM317.969 169.187V171.276H316.146V181H313.639V175.017L314.151 176.1C313.949 175.733 313.708 175.416 313.43 175.15C313.151 174.884 312.835 174.751 312.48 174.751C312.353 174.751 312.208 174.783 312.043 174.846C311.891 174.91 311.758 175.03 311.644 175.207C311.543 175.384 311.492 175.644 311.492 175.986C311.492 176.1 311.499 176.208 311.511 176.309C311.524 176.397 311.537 176.492 311.549 176.594L309.403 176.727C309.34 176.309 309.213 175.948 309.023 175.644C308.846 175.328 308.618 175.087 308.34 174.922C308.061 174.758 307.726 174.675 307.333 174.675C307.105 174.675 306.903 174.72 306.725 174.808C306.548 174.884 306.409 174.998 306.307 175.15C306.219 175.302 306.175 175.479 306.175 175.682C306.175 176.138 306.352 176.492 306.706 176.746C307.074 176.999 307.517 177.208 308.036 177.372L307.314 179.5C306.554 179.284 305.896 178.999 305.339 178.645C304.782 178.278 304.351 177.841 304.047 177.334C303.743 176.828 303.592 176.246 303.592 175.587C303.592 174.954 303.743 174.41 304.047 173.954C304.364 173.498 304.782 173.15 305.301 172.909C305.82 172.656 306.39 172.529 307.01 172.529C307.757 172.529 308.384 172.656 308.89 172.909C309.397 173.15 309.922 173.549 310.467 174.106L310.125 173.973C310.264 173.53 310.511 173.194 310.866 172.966C311.22 172.738 311.594 172.624 311.986 172.624C312.429 172.624 312.822 172.713 313.164 172.89C313.518 173.067 313.848 173.308 314.151 173.612L313.734 173.916C313.708 173.637 313.683 173.359 313.658 173.08C313.645 172.801 313.639 172.523 313.639 172.244V171.276H302.851V169.187H317.969ZM323.75 169.187V171.276H321.926V181H319.419V172.567C319.267 172.175 319.052 171.865 318.774 171.637C318.495 171.396 318.134 171.276 317.691 171.276H317.596V169.187H317.976C318.267 169.187 318.539 169.263 318.793 169.414C319.046 169.566 319.28 169.889 319.495 170.383C319.483 170.32 319.464 170.174 319.438 169.946C319.426 169.718 319.419 169.522 319.419 169.357V167.933H321.471L321.907 169.187H323.75ZM331.322 169.187V171.276H330.24C329.809 171.491 329.391 171.757 328.986 172.073C328.594 172.377 328.239 172.732 327.923 173.137C327.619 173.53 327.372 173.966 327.182 174.448C327.005 174.929 326.916 175.448 326.916 176.005C326.916 176.765 327.03 177.36 327.258 177.79C327.486 178.221 327.771 178.525 328.113 178.702C328.454 178.866 328.796 178.949 329.138 178.949C329.366 178.949 329.588 178.93 329.803 178.892C330.018 178.841 330.265 178.746 330.544 178.607L331.493 180.487C331.075 180.728 330.664 180.892 330.259 180.981C329.854 181.057 329.429 181.095 328.986 181.095C328.049 181.095 327.233 180.905 326.536 180.525C325.84 180.133 325.302 179.563 324.922 178.816C324.555 178.056 324.371 177.138 324.371 176.062C324.371 175.188 324.529 174.378 324.846 173.631C325.162 172.884 325.606 172.232 326.175 171.675C326.758 171.105 327.441 170.674 328.227 170.383L327.011 171.2C326.808 171.225 326.574 171.244 326.308 171.257C326.055 171.269 325.726 171.276 325.321 171.276H323.364V169.187H331.322ZM343.466 169.187V171.276H335.072V176.537L334.521 176.157C334.977 175.663 335.509 175.188 336.116 174.732C336.724 174.277 337.395 173.84 338.13 173.422C338.877 173.004 339.674 172.624 340.523 172.282L342.251 173.726C342.074 174.042 341.922 174.384 341.795 174.751C341.681 175.106 341.593 175.486 341.529 175.891C341.479 176.283 341.453 176.701 341.453 177.144C341.453 177.638 341.504 178.195 341.605 178.816C341.707 179.424 341.865 180.05 342.08 180.696L339.63 181.209C339.402 180.538 339.225 179.886 339.098 179.253C338.984 178.62 338.927 177.93 338.927 177.182C338.927 176.714 338.972 176.264 339.06 175.834C339.149 175.391 339.269 174.973 339.421 174.58C339.573 174.188 339.731 173.827 339.896 173.498L340.656 174.561C339.909 174.878 339.18 175.271 338.471 175.739C337.762 176.195 337.085 176.689 336.439 177.22C335.793 177.74 335.192 178.259 334.635 178.778L332.565 177.429V171.276H330.95V169.187H343.466ZM357.021 169.187V171.276H355.198V181H352.691V171.371L352.767 170.934C352.741 170.693 352.722 170.459 352.71 170.231C352.697 169.991 352.691 169.756 352.691 169.528V167.933H354.742L355.179 169.187H357.021ZM349.842 169.054C350.386 169.054 350.861 169.149 351.266 169.338C351.684 169.528 352.058 169.801 352.387 170.155C352.716 170.51 353.007 170.928 353.26 171.409V173.954C352.855 173.131 352.406 172.46 351.912 171.94C351.418 171.409 350.855 171.143 350.222 171.143C349.867 171.143 349.557 171.244 349.291 171.447C349.038 171.637 348.911 171.934 348.911 172.339C348.911 172.783 349.095 173.118 349.462 173.346C349.842 173.561 350.405 173.681 351.152 173.707L350.886 175.986C349.975 175.935 349.247 175.745 348.702 175.416C348.158 175.087 347.765 174.656 347.525 174.125C347.284 173.58 347.164 172.972 347.164 172.301C347.164 171.554 347.284 170.947 347.525 170.478C347.778 169.997 348.107 169.642 348.512 169.414C348.93 169.174 349.373 169.054 349.842 169.054ZM344.828 169.054C345.41 169.054 345.948 169.174 346.442 169.414C346.936 169.655 347.328 170.035 347.62 170.554C347.924 171.06 348.075 171.732 348.075 172.567C348.075 173.137 347.949 173.688 347.696 174.22C347.455 174.739 347.056 175.163 346.499 175.492C345.955 175.821 345.227 175.986 344.315 175.986L344.068 173.726C344.65 173.688 345.1 173.612 345.417 173.498C345.733 173.371 345.955 173.213 346.081 173.023C346.221 172.82 346.29 172.599 346.29 172.358C346.29 171.953 346.145 171.649 345.853 171.447C345.575 171.244 345.201 171.143 344.733 171.143C344.467 171.143 344.22 171.155 343.992 171.181C343.777 171.206 343.536 171.257 343.27 171.333L343.042 169.225C343.372 169.161 343.682 169.117 343.973 169.092C344.264 169.066 344.549 169.054 344.828 169.054ZM371.847 169.054C373.012 169.054 373.905 169.313 374.525 169.832C375.158 170.351 375.475 171.067 375.475 171.978C375.475 172.624 375.298 173.213 374.943 173.745C374.601 174.264 374.126 174.726 373.519 175.131C372.924 175.524 372.246 175.859 371.486 176.138L370.613 174.087C371.246 173.871 371.784 173.606 372.227 173.289C372.683 172.972 372.911 172.555 372.911 172.035C372.911 171.744 372.816 171.516 372.626 171.352C372.436 171.187 372.151 171.105 371.771 171.105C371.43 171.105 371.1 171.162 370.784 171.276C370.467 171.39 370.176 171.535 369.91 171.713C369.657 171.877 369.454 172.061 369.302 172.263C369.163 172.453 369.093 172.624 369.093 172.776C369.093 172.915 369.144 173.042 369.245 173.156C369.347 173.257 369.575 173.333 369.929 173.384L369.416 175.492C368.454 175.391 367.732 175.1 367.251 174.618C366.77 174.137 366.529 173.58 366.529 172.947C366.529 172.415 366.675 171.915 366.966 171.447C367.257 170.966 367.656 170.548 368.163 170.193C368.669 169.839 369.239 169.56 369.872 169.357C370.505 169.155 371.164 169.054 371.847 169.054ZM375.646 176.898C375.646 177.974 375.222 178.847 374.373 179.519C373.538 180.177 372.392 180.506 370.936 180.506C369.935 180.506 368.998 180.373 368.125 180.107C367.251 179.829 366.441 179.373 365.694 178.74C364.959 178.107 364.288 177.246 363.68 176.157C363.085 175.055 362.547 173.681 362.066 172.035L364.44 171.371C364.959 173.093 365.516 174.467 366.112 175.492C366.719 176.505 367.397 177.233 368.144 177.676C368.891 178.107 369.745 178.322 370.708 178.322C371.366 178.322 371.93 178.176 372.398 177.885C372.867 177.594 373.101 177.176 373.101 176.632C373.101 176.201 372.949 175.853 372.645 175.587C372.341 175.309 371.974 175.1 371.543 174.96L373.804 173.954C374.335 174.308 374.772 174.732 375.114 175.226C375.469 175.707 375.646 176.264 375.646 176.898ZM384.35 169.187V171.276H383.267C382.837 171.491 382.419 171.757 382.014 172.073C381.621 172.377 381.267 172.732 380.95 173.137C380.646 173.53 380.399 173.966 380.209 174.448C380.032 174.929 379.943 175.448 379.943 176.005C379.943 176.765 380.057 177.36 380.285 177.79C380.513 178.221 380.798 178.525 381.14 178.702C381.482 178.866 381.824 178.949 382.166 178.949C382.393 178.949 382.615 178.93 382.83 178.892C383.046 178.841 383.292 178.746 383.571 178.607L384.521 180.487C384.103 180.728 383.691 180.892 383.286 180.981C382.881 181.057 382.457 181.095 382.014 181.095C381.077 181.095 380.26 180.905 379.564 180.525C378.867 180.133 378.329 179.563 377.949 178.816C377.582 178.056 377.398 177.138 377.398 176.062C377.398 175.188 377.557 174.378 377.873 173.631C378.19 172.884 378.633 172.232 379.203 171.675C379.785 171.105 380.469 170.674 381.254 170.383L380.038 171.2C379.836 171.225 379.602 171.244 379.336 171.257C379.082 171.269 378.753 171.276 378.348 171.276H376.392V169.187H384.35ZM398.887 169.187V171.276H397.064V181H394.557V173.555L394.671 174.523C394.278 173.992 393.886 173.517 393.493 173.099C393.101 172.681 392.708 172.327 392.316 172.035C391.923 171.744 391.524 171.523 391.119 171.371C390.714 171.219 390.302 171.143 389.884 171.143C389.378 171.143 388.916 171.238 388.498 171.428C388.093 171.618 387.713 171.877 387.358 172.206C387.017 172.536 386.668 172.922 386.314 173.365L386.257 172.928C386.51 172.764 386.782 172.618 387.074 172.491C387.377 172.352 387.732 172.282 388.137 172.282C388.77 172.282 389.226 172.46 389.505 172.814C389.796 173.156 389.941 173.542 389.941 173.973C389.941 174.175 389.935 174.365 389.922 174.542C389.922 174.72 389.91 174.84 389.884 174.903L389.296 174.732C389.422 174.58 389.568 174.422 389.733 174.258C389.91 174.08 390.093 173.903 390.283 173.726C390.473 173.549 390.657 173.384 390.834 173.232L393.113 171.257L394.614 172.757L388.992 177.866L387.263 176.252L389.049 174.618L388.327 175.587L387.548 176.043C387.764 175.828 387.928 175.606 388.042 175.378C388.156 175.15 388.213 174.935 388.213 174.732C388.213 174.429 388.131 174.213 387.966 174.087C387.802 173.947 387.593 173.878 387.339 173.878C387.175 173.878 387.004 173.909 386.827 173.973C386.662 174.023 386.485 174.106 386.295 174.22L384.415 172.491C384.997 171.77 385.56 171.155 386.105 170.649C386.649 170.13 387.219 169.737 387.814 169.471C388.409 169.193 389.074 169.054 389.808 169.054C390.454 169.054 391.043 169.161 391.575 169.376C392.107 169.592 392.626 169.902 393.132 170.307C393.651 170.712 394.189 171.2 394.747 171.77L394.671 172.168C394.645 171.915 394.62 171.624 394.595 171.295C394.569 170.966 394.557 170.643 394.557 170.326V167.933H396.608L397.045 169.187H398.887ZM410.922 169.187V171.276H409.098V181H406.591V177.012L406.971 177.999C406.579 177.493 406.154 177.031 405.699 176.613C405.243 176.195 404.781 175.859 404.312 175.606C403.856 175.353 403.407 175.226 402.964 175.226C402.647 175.226 402.375 175.302 402.147 175.454C401.932 175.593 401.824 175.821 401.824 176.138C401.824 176.416 401.925 176.651 402.128 176.841C402.331 177.031 402.654 177.214 403.097 177.391L401.976 179.481C401.128 179.151 400.457 178.683 399.963 178.075C399.482 177.455 399.241 176.777 399.241 176.043C399.241 175.359 399.399 174.802 399.716 174.372C400.033 173.928 400.438 173.606 400.932 173.403C401.438 173.188 401.957 173.08 402.489 173.08C403.071 173.08 403.622 173.169 404.141 173.346C404.66 173.523 405.154 173.776 405.623 174.106C406.104 174.422 406.572 174.815 407.028 175.283L406.648 175.473C406.623 175.169 406.604 174.859 406.591 174.542C406.591 174.213 406.591 173.909 406.591 173.631V171.276H398.5V169.187H410.922ZM423.429 169.187V171.276H422.347C421.916 171.491 421.498 171.757 421.093 172.073C420.701 172.377 420.346 172.732 420.03 173.137C419.726 173.53 419.479 173.966 419.289 174.448C419.112 174.929 419.023 175.448 419.023 176.005C419.023 176.765 419.137 177.36 419.365 177.79C419.593 178.221 419.878 178.525 420.22 178.702C420.561 178.866 420.903 178.949 421.245 178.949C421.473 178.949 421.695 178.93 421.91 178.892C422.125 178.841 422.372 178.746 422.651 178.607L423.6 180.487C423.182 180.728 422.771 180.892 422.366 180.981C421.961 181.057 421.536 181.095 421.093 181.095C420.156 181.095 419.34 180.905 418.643 180.525C417.947 180.133 417.409 179.563 417.029 178.816C416.662 178.056 416.478 177.138 416.478 176.062C416.478 175.29 416.598 174.555 416.839 173.859C417.079 173.15 417.409 172.498 417.827 171.903C418.257 171.307 418.757 170.782 419.327 170.326C419.897 169.858 420.511 169.478 421.169 169.187H423.429ZM434.7 169.187V171.276H427.293V176.841C427.293 177.271 427.318 177.588 427.369 177.79C427.419 177.993 427.495 178.145 427.597 178.246C427.774 178.436 428.065 178.531 428.47 178.531C428.812 178.531 429.141 178.461 429.458 178.322C429.774 178.17 430.097 177.936 430.427 177.619C430.705 177.366 430.92 177.094 431.072 176.803C431.224 176.511 431.3 176.214 431.3 175.91C431.3 175.669 431.224 175.473 431.072 175.321C430.92 175.169 430.673 175.093 430.332 175.093C430.167 175.093 430.015 175.1 429.876 175.112C429.749 175.125 429.629 175.144 429.515 175.169L429.173 173.118C429.452 173.055 429.73 173.004 430.009 172.966C430.287 172.928 430.61 172.909 430.977 172.909C431.648 172.909 432.187 173.023 432.592 173.251C432.997 173.479 433.294 173.783 433.484 174.163C433.674 174.542 433.769 174.973 433.769 175.454C433.769 176.151 433.624 176.803 433.332 177.41C433.041 178.005 432.655 178.544 432.174 179.025C431.667 179.519 431.085 179.911 430.427 180.202C429.768 180.481 429.065 180.62 428.318 180.62C427.635 180.62 427.103 180.557 426.723 180.43C426.343 180.304 426.02 180.12 425.754 179.879C425.488 179.652 425.261 179.316 425.071 178.873C424.881 178.43 424.786 177.746 424.786 176.822V171.276H423.057V169.187H434.7ZM430.465 169.187C430.452 168.794 430.351 168.515 430.161 168.351C429.971 168.174 429.635 168.085 429.154 168.085H427.73C426.767 168.085 425.982 167.996 425.374 167.819C424.779 167.629 424.311 167.344 423.969 166.964C423.728 166.699 423.551 166.388 423.437 166.034C423.336 165.667 423.285 165.249 423.285 164.78C423.285 164.59 423.292 164.419 423.304 164.267C423.317 164.103 423.342 163.907 423.38 163.679L425.754 163.831C425.742 163.945 425.729 164.046 425.716 164.135C425.716 164.223 425.716 164.305 425.716 164.381C425.716 164.647 425.742 164.888 425.792 165.103C425.856 165.306 425.957 165.477 426.096 165.616C426.235 165.743 426.413 165.838 426.628 165.901C426.843 165.964 427.191 165.996 427.673 165.996H429.173C429.92 165.996 430.509 166.053 430.939 166.167C431.382 166.281 431.756 166.483 432.06 166.774C432.3 167.015 432.484 167.332 432.611 167.724C432.75 168.104 432.826 168.591 432.839 169.187H430.465ZM450.972 169.187V171.276H444.781V172.415L444.819 173.194V181H442.312C441.843 180.316 441.273 179.715 440.602 179.196C439.944 178.677 439.209 178.246 438.399 177.904C437.589 177.55 436.709 177.296 435.759 177.144L434.81 174.903C435.974 174.258 437.247 173.637 438.627 173.042C440.02 172.434 441.387 171.953 442.729 171.599L442.369 172.149V171.276H434.316V169.187H450.972ZM442.312 173.422L442.71 173.84C442.153 174.004 441.615 174.182 441.096 174.372C440.59 174.561 440.083 174.77 439.577 174.998C439.07 175.214 438.545 175.454 438 175.72C438.519 175.821 439.058 175.999 439.615 176.252C440.184 176.492 440.735 176.809 441.267 177.201C441.811 177.594 442.299 178.05 442.729 178.569L442.388 178.778C442.375 178.55 442.356 178.297 442.331 178.018C442.318 177.74 442.312 177.442 442.312 177.125V173.422ZM450.175 176.1C450.175 176.518 450.086 176.917 449.909 177.296C449.744 177.676 449.453 177.986 449.035 178.227C448.617 178.468 448.035 178.588 447.288 178.588C447.022 178.588 446.775 178.582 446.547 178.569C446.332 178.544 446.129 178.512 445.939 178.474L446.015 176.385C446.079 176.397 446.154 176.41 446.243 176.423C446.344 176.423 446.471 176.423 446.623 176.423C447.079 176.423 447.376 176.347 447.516 176.195C447.655 176.03 447.725 175.834 447.725 175.606C447.725 175.176 447.452 174.796 446.908 174.467C446.363 174.137 445.566 173.884 444.515 173.707V171.637C445.553 171.776 446.496 172.042 447.345 172.434C448.206 172.814 448.889 173.314 449.396 173.935C449.915 174.542 450.175 175.264 450.175 176.1ZM463.492 169.187V171.276H462.409C461.979 171.491 461.561 171.757 461.156 172.073C460.763 172.377 460.409 172.732 460.092 173.137C459.788 173.53 459.542 173.966 459.352 174.448C459.174 174.929 459.086 175.448 459.086 176.005C459.086 176.765 459.2 177.36 459.428 177.79C459.656 178.221 459.94 178.525 460.282 178.702C460.624 178.866 460.966 178.949 461.308 178.949C461.536 178.949 461.757 178.93 461.973 178.892C462.188 178.841 462.435 178.746 462.713 178.607L463.663 180.487C463.245 180.728 462.834 180.892 462.428 180.981C462.023 181.057 461.599 181.095 461.156 181.095C460.219 181.095 459.402 180.905 458.706 180.525C458.009 180.133 457.471 179.563 457.092 178.816C456.724 178.056 456.541 177.138 456.541 176.062C456.541 175.29 456.661 174.555 456.902 173.859C457.142 173.15 457.471 172.498 457.889 171.903C458.32 171.307 458.82 170.782 459.39 170.326C459.959 169.858 460.573 169.478 461.232 169.187H463.492ZM479.777 169.187V171.276H473.585V172.415L473.623 173.194V181H471.116C470.647 180.316 470.078 179.715 469.407 179.196C468.748 178.677 468.014 178.246 467.203 177.904C466.393 177.55 465.513 177.296 464.563 177.144L463.614 174.903C464.779 174.258 466.051 173.637 467.431 173.042C468.824 172.434 470.192 171.953 471.534 171.599L471.173 172.149V171.276H463.12V169.187H479.777ZM471.116 173.422L471.515 173.84C470.958 174.004 470.42 174.182 469.9 174.372C469.394 174.561 468.887 174.77 468.381 174.998C467.875 175.214 467.349 175.454 466.805 175.72C467.324 175.821 467.862 175.999 468.419 176.252C468.989 176.492 469.54 176.809 470.071 177.201C470.616 177.594 471.103 178.05 471.534 178.569L471.192 178.778C471.179 178.55 471.16 178.297 471.135 178.018C471.122 177.74 471.116 177.442 471.116 177.125V173.422ZM478.979 176.1C478.979 176.518 478.89 176.917 478.713 177.296C478.548 177.676 478.257 177.986 477.839 178.227C477.422 178.468 476.839 178.588 476.092 178.588C475.826 178.588 475.579 178.582 475.351 178.569C475.136 178.544 474.933 178.512 474.744 178.474L474.82 176.385C474.883 176.397 474.959 176.41 475.047 176.423C475.149 176.423 475.275 176.423 475.427 176.423C475.883 176.423 476.181 176.347 476.32 176.195C476.459 176.03 476.529 175.834 476.529 175.606C476.529 175.176 476.257 174.796 475.712 174.467C475.168 174.137 474.37 173.884 473.319 173.707V171.637C474.357 171.776 475.301 172.042 476.149 172.434C477.01 172.814 477.694 173.314 478.2 173.935C478.719 174.542 478.979 175.264 478.979 176.1ZM485.558 169.187V171.276H483.735V181H481.228V172.567C481.076 172.175 480.861 171.865 480.582 171.637C480.304 171.396 479.943 171.276 479.5 171.276H479.405V169.187H479.785C480.076 169.187 480.348 169.263 480.601 169.414C480.855 169.566 481.089 169.889 481.304 170.383C481.291 170.32 481.272 170.174 481.247 169.946C481.234 169.718 481.228 169.522 481.228 169.357V167.933H483.279L483.716 169.187H485.558ZM486.351 174.201H491.327V176.518H486.351V174.201ZM510.741 169.187V171.276H508.918V181H506.411C506.056 180.329 505.556 179.753 504.91 179.272C504.277 178.778 503.663 178.373 503.068 178.056L504.17 176.442C504.651 176.72 505.088 177.018 505.48 177.334C505.885 177.638 506.215 177.936 506.468 178.227C506.455 178.088 506.443 177.949 506.43 177.809C506.43 177.67 506.424 177.524 506.411 177.372C506.411 177.208 506.411 177.043 506.411 176.879V171.276H492.128V169.187H510.741ZM499.877 179.443C498.839 179.443 497.864 179.24 496.953 178.835C496.054 178.43 495.237 177.746 494.502 176.784C493.781 175.821 493.148 174.517 492.603 172.871L494.977 172.206C495.382 173.384 495.807 174.346 496.25 175.093C496.693 175.84 497.199 176.391 497.769 176.746C498.339 177.088 499.004 177.258 499.763 177.258C500.359 177.258 500.846 177.182 501.226 177.031C501.618 176.879 501.91 176.657 502.1 176.366C502.289 176.075 502.384 175.733 502.384 175.34C502.384 174.859 502.251 174.486 501.986 174.22C501.732 173.941 501.403 173.802 500.998 173.802C500.719 173.802 500.504 173.871 500.352 174.011C500.2 174.15 500.124 174.334 500.124 174.561C500.124 174.663 500.137 174.777 500.162 174.903C500.188 175.017 500.219 175.125 500.257 175.226L497.902 175.568C497.801 175.328 497.725 175.093 497.674 174.865C497.624 174.637 497.598 174.441 497.598 174.277C497.598 173.656 497.744 173.169 498.035 172.814C498.326 172.447 498.706 172.181 499.175 172.016C499.656 171.852 500.156 171.77 500.675 171.77C501.549 171.77 502.302 171.94 502.935 172.282C503.568 172.612 504.049 173.067 504.379 173.65C504.721 174.232 504.891 174.891 504.891 175.625C504.891 176.309 504.721 176.942 504.379 177.524C504.037 178.107 503.492 178.575 502.745 178.93C502.011 179.272 501.055 179.443 499.877 179.443ZM498.681 172.871C498.63 172.453 498.447 172.092 498.13 171.789C497.814 171.485 497.358 171.263 496.763 171.124L498.187 170.288L499.061 170.497C499.77 170.788 500.283 171.111 500.599 171.466C500.916 171.82 501.106 172.27 501.169 172.814L498.681 172.871ZM525.27 169.187V171.276H523.447V181H520.94V173.555L521.053 174.523C520.661 173.992 520.268 173.517 519.876 173.099C519.483 172.681 519.091 172.327 518.698 172.035C518.306 171.744 517.907 171.523 517.502 171.371C517.097 171.219 516.685 171.143 516.267 171.143C515.761 171.143 515.299 171.238 514.881 171.428C514.476 171.618 514.096 171.877 513.741 172.206C513.399 172.536 513.051 172.922 512.697 173.365L512.64 172.928C512.893 172.764 513.165 172.618 513.456 172.491C513.76 172.352 514.115 172.282 514.52 172.282C515.153 172.282 515.609 172.46 515.887 172.814C516.179 173.156 516.324 173.542 516.324 173.973C516.324 174.175 516.318 174.365 516.305 174.542C516.305 174.72 516.293 174.84 516.267 174.903L515.679 174.732C515.805 174.58 515.951 174.422 516.115 174.258C516.293 174.08 516.476 173.903 516.666 173.726C516.856 173.549 517.04 173.384 517.217 173.232L519.496 171.257L520.997 172.757L515.375 177.866L513.646 176.252L515.432 174.618L514.71 175.587L513.931 176.043C514.146 175.828 514.311 175.606 514.425 175.378C514.539 175.15 514.596 174.935 514.596 174.732C514.596 174.429 514.514 174.213 514.349 174.087C514.184 173.947 513.976 173.878 513.722 173.878C513.558 173.878 513.387 173.909 513.21 173.973C513.045 174.023 512.868 174.106 512.678 174.22L510.797 172.491C511.38 171.77 511.943 171.155 512.488 170.649C513.032 170.13 513.602 169.737 514.197 169.471C514.792 169.193 515.457 169.054 516.191 169.054C516.837 169.054 517.426 169.161 517.958 169.376C518.489 169.592 519.009 169.902 519.515 170.307C520.034 170.712 520.572 171.2 521.129 171.77L521.053 172.168C521.028 171.915 521.003 171.624 520.978 171.295C520.952 170.966 520.94 170.643 520.94 170.326V167.933H522.991L523.428 169.187H525.27ZM531.037 169.187V171.276H529.214V181H526.707V172.567C526.555 172.175 526.339 171.865 526.061 171.637C525.782 171.396 525.421 171.276 524.978 171.276H524.883V169.187H525.263C525.554 169.187 525.827 169.263 526.08 169.414C526.333 169.566 526.567 169.889 526.783 170.383C526.77 170.32 526.751 170.174 526.726 169.946C526.713 169.718 526.707 169.522 526.707 169.357V167.933H528.758L529.195 169.187H531.037ZM538.61 169.187V171.276H537.527C537.096 171.491 536.679 171.757 536.273 172.073C535.881 172.377 535.526 172.732 535.21 173.137C534.906 173.53 534.659 173.966 534.469 174.448C534.292 174.929 534.203 175.448 534.203 176.005C534.203 176.765 534.317 177.36 534.545 177.79C534.773 178.221 535.058 178.525 535.4 178.702C535.742 178.866 536.084 178.949 536.425 178.949C536.653 178.949 536.875 178.93 537.09 178.892C537.305 178.841 537.552 178.746 537.831 178.607L538.78 180.487C538.363 180.728 537.951 180.892 537.546 180.981C537.141 181.057 536.717 181.095 536.273 181.095C535.336 181.095 534.52 180.905 533.823 180.525C533.127 180.133 532.589 179.563 532.209 178.816C531.842 178.056 531.658 177.138 531.658 176.062C531.658 175.188 531.816 174.378 532.133 173.631C532.45 172.884 532.893 172.232 533.463 171.675C534.045 171.105 534.729 170.674 535.514 170.383L534.298 171.2C534.096 171.225 533.861 171.244 533.595 171.257C533.342 171.269 533.013 171.276 532.608 171.276H530.652V169.187H538.61ZM550.564 169.187V171.276H548.741V181H546.233C545.765 180.316 545.195 179.715 544.524 179.196C543.866 178.677 543.131 178.246 542.321 177.904C541.511 177.55 540.631 177.296 539.681 177.144L538.731 174.903C539.896 174.258 541.169 173.637 542.549 173.042C543.942 172.434 545.309 171.953 546.651 171.599L546.309 172.225V171.276H538.238V169.187H550.564ZM546.233 173.422L546.632 173.84C545.797 174.08 545.005 174.359 544.258 174.675C543.524 174.979 542.745 175.328 541.922 175.72C542.441 175.821 542.979 175.999 543.537 176.252C544.106 176.492 544.657 176.809 545.189 177.201C545.733 177.594 546.221 178.05 546.651 178.569L546.29 178.778C546.278 178.487 546.265 178.195 546.252 177.904C546.24 177.613 546.233 177.328 546.233 177.05V173.422ZM541.656 181.228C541.264 181.228 540.935 181.095 540.669 180.829C540.403 180.551 540.27 180.209 540.27 179.803C540.27 179.398 540.403 179.063 540.669 178.797C540.935 178.518 541.264 178.379 541.656 178.379C542.061 178.379 542.391 178.518 542.644 178.797C542.91 179.063 543.043 179.398 543.043 179.803C543.043 180.209 542.91 180.551 542.644 180.829C542.391 181.095 542.061 181.228 541.656 181.228ZM567.598 169.187V171.276H560.191V176.841C560.191 177.271 560.217 177.588 560.267 177.79C560.318 177.993 560.394 178.145 560.495 178.246C560.672 178.436 560.964 178.531 561.369 178.531C561.711 178.531 562.04 178.461 562.356 178.322C562.673 178.17 562.996 177.936 563.325 177.619C563.604 177.366 563.819 177.094 563.971 176.803C564.123 176.511 564.199 176.214 564.199 175.91C564.199 175.669 564.123 175.473 563.971 175.321C563.819 175.169 563.572 175.093 563.23 175.093C563.066 175.093 562.914 175.1 562.774 175.112C562.648 175.125 562.527 175.144 562.413 175.169L562.072 173.118C562.35 173.055 562.629 173.004 562.907 172.966C563.186 172.928 563.509 172.909 563.876 172.909C564.547 172.909 565.085 173.023 565.49 173.251C565.895 173.479 566.193 173.783 566.383 174.163C566.573 174.542 566.668 174.973 566.668 175.454C566.668 176.151 566.522 176.803 566.231 177.41C565.94 178.005 565.554 178.544 565.072 179.025C564.566 179.519 563.984 179.911 563.325 180.202C562.667 180.481 561.964 180.62 561.217 180.62C560.533 180.62 560.001 180.557 559.622 180.43C559.242 180.304 558.919 180.12 558.653 179.879C558.387 179.652 558.159 179.316 557.969 178.873C557.779 178.43 557.684 177.746 557.684 176.822V171.276H555.956V169.187H567.598ZM563.363 169.187C563.35 168.857 563.249 168.617 563.059 168.465C562.882 168.313 562.584 168.237 562.167 168.237H559.887C558.925 168.237 558.14 168.148 557.532 167.971C556.937 167.781 556.469 167.496 556.127 167.116C555.886 166.85 555.709 166.54 555.595 166.186C555.494 165.819 555.443 165.401 555.443 164.932C555.443 164.755 555.449 164.571 555.462 164.381C555.475 164.179 555.506 163.97 555.557 163.755L557.874 163.964C557.862 164.078 557.849 164.185 557.836 164.286C557.836 164.375 557.836 164.47 557.836 164.571C557.836 164.939 557.862 165.23 557.912 165.445C557.976 165.66 558.077 165.838 558.216 165.977C558.355 166.103 558.558 166.217 558.824 166.319C559.102 166.42 559.501 166.471 560.02 166.471H561.331C562.002 166.471 562.534 166.477 562.926 166.49C563.331 166.49 563.654 166.502 563.895 166.528C564.148 166.54 564.389 166.559 564.617 166.585C565.022 166.901 565.307 167.294 565.471 167.762C565.649 168.231 565.737 168.705 565.737 169.187H563.363ZM556.336 169.187V171.276H554.513V181H552.005V171.276H550.182V169.187H552.024C551.822 168.959 551.6 168.699 551.36 168.408C551.132 168.117 550.929 167.851 550.752 167.61C551.385 166.585 552.012 165.781 552.632 165.198C553.253 164.616 553.917 164.204 554.626 163.964C555.348 163.71 556.152 163.584 557.039 163.584C557.748 163.584 558.476 163.679 559.223 163.869C559.97 164.046 560.78 164.35 561.654 164.78C562.54 165.211 563.528 165.812 564.617 166.585L563.268 168.009C562.534 167.528 561.882 167.135 561.312 166.831C560.755 166.515 560.248 166.268 559.792 166.091C559.349 165.901 558.925 165.768 558.52 165.692C558.115 165.616 557.703 165.578 557.285 165.578C556.627 165.578 556.064 165.698 555.595 165.939C555.127 166.179 554.728 166.483 554.399 166.85C554.069 167.205 553.784 167.566 553.544 167.933C553.658 168.136 553.791 168.351 553.943 168.579C554.095 168.807 554.253 169.009 554.418 169.187H556.336ZM575.812 180.449C574.926 180.449 574.077 180.329 573.267 180.088C572.469 179.848 571.722 179.443 571.026 178.873C570.342 178.303 569.722 177.531 569.165 176.556C568.607 175.581 568.126 174.353 567.721 172.871L570.095 172.206C570.538 173.738 571.02 174.948 571.539 175.834C572.07 176.708 572.672 177.334 573.343 177.714C574.014 178.081 574.774 178.265 575.622 178.265C576.23 178.265 576.743 178.176 577.161 177.999C577.591 177.822 577.92 177.562 578.148 177.22C578.376 176.879 578.49 176.467 578.49 175.986C578.49 175.657 578.452 175.366 578.376 175.112C578.3 174.859 578.192 174.631 578.053 174.429C577.927 174.226 577.781 174.055 577.616 173.916L579.592 172.32C580.073 172.966 580.421 173.612 580.636 174.258C580.864 174.903 580.978 175.587 580.978 176.309C580.978 177.094 580.782 177.803 580.389 178.436C580.009 179.056 579.433 179.55 578.661 179.917C577.901 180.272 576.952 180.449 575.812 180.449ZM575.147 176.138C574.286 176.138 573.603 175.935 573.096 175.53C572.602 175.112 572.355 174.549 572.355 173.84C572.355 173.536 572.393 173.245 572.469 172.966C572.545 172.688 572.64 172.434 572.754 172.206L574.995 172.757C574.945 172.871 574.9 172.979 574.862 173.08C574.837 173.169 574.824 173.27 574.824 173.384C574.824 173.625 574.894 173.795 575.033 173.897C575.173 173.998 575.35 174.049 575.565 174.049C575.806 174.049 576.021 174.011 576.211 173.935C576.413 173.846 576.616 173.707 576.819 173.517C577.021 173.314 577.243 173.036 577.483 172.681L579.592 172.32L579.687 173.517C579.269 174.074 578.832 174.549 578.376 174.941C577.92 175.334 577.426 175.631 576.895 175.834C576.375 176.037 575.793 176.138 575.147 176.138ZM581.852 169.187V171.276H567.227V169.187H581.852Z" fill="url(#paint0_linear_50_85)"/>
<path d="M303.904 89.728C303.853 88.1573 303.448 87.0427 302.688 86.384C301.928 85.6747 300.585 85.32 298.66 85.32H294.176C290.325 85.32 287.184 84.9653 284.752 84.256C282.371 83.496 280.496 82.356 279.128 80.836C278.165 79.772 277.456 78.5307 277 77.112C276.595 75.6427 276.392 73.9707 276.392 72.096C276.392 71.336 276.417 70.652 276.468 70.044C276.519 69.3853 276.62 68.6 276.772 67.688L286.272 68.296C286.221 68.752 286.171 69.1573 286.12 69.512C286.12 69.8667 286.12 70.196 286.12 70.5C286.12 71.564 286.221 72.5267 286.424 73.388C286.677 74.1987 287.083 74.8827 287.64 75.44C288.197 75.9467 288.907 76.3267 289.768 76.58C290.629 76.8333 292.023 76.96 293.948 76.96H298.736C301.725 76.96 304.081 77.188 305.804 77.644C307.577 78.1 309.072 78.9107 310.288 80.076C311.251 81.0387 311.985 82.3053 312.492 83.876C313.049 85.396 313.353 87.3467 313.404 89.728H303.904ZM296.988 100.14C301.649 100.14 305.348 100.849 308.084 102.268C310.871 103.636 312.872 105.384 314.088 107.512C315.304 109.64 315.912 111.819 315.912 114.048C315.912 118.203 314.595 121.395 311.96 123.624C309.376 125.803 305.703 127.272 300.94 128.032L299.192 124.916C301.725 125.575 304.233 126.385 306.716 127.348C309.199 128.311 311.656 129.451 314.088 130.768C316.571 132.085 319.003 133.58 321.384 135.252L316.064 142.32C313.683 140.597 311.149 139.001 308.464 137.532C305.829 136.063 303.017 134.745 300.028 133.58C297.089 132.364 293.999 131.3 290.756 130.388C287.513 129.476 284.093 128.741 280.496 128.184L282.168 120.204C283.941 120.66 285.664 121.015 287.336 121.268C289.059 121.521 290.781 121.648 292.504 121.648C295.747 121.648 298.331 121.344 300.256 120.736C302.181 120.077 303.575 119.191 304.436 118.076C305.348 116.961 305.804 115.644 305.804 114.124C305.804 112.3 305.095 110.831 303.676 109.716C302.308 108.601 300.357 108.044 297.824 108.044C296.355 108.044 295.164 108.171 294.252 108.424C293.391 108.677 292.757 109.083 292.352 109.64C291.997 110.147 291.82 110.78 291.82 111.54C291.82 111.793 291.871 112.097 291.972 112.452C292.073 112.807 292.175 113.111 292.276 113.364L282.852 114.732C282.548 113.972 282.295 113.111 282.092 112.148C281.889 111.135 281.788 110.197 281.788 109.336C281.788 107.512 282.396 105.916 283.612 104.548C284.828 103.129 286.576 102.04 288.856 101.28C291.136 100.52 293.847 100.14 296.988 100.14ZM288.02 104.472C287.767 102.8 287.007 101.356 285.74 100.14C284.473 98.924 282.649 98.0373 280.268 97.48L286.044 94.136L289.54 94.972C292.377 96.1373 294.429 97.4293 295.696 98.848C296.963 100.267 297.697 102.065 297.9 104.244L288.02 104.472ZM321.308 89.728V98.088H276.24V89.728H321.308ZM386.533 89.728V98.088H361.757V102.648L361.909 105.764V137H351.877C350.002 134.264 347.722 131.857 345.037 129.78C342.402 127.703 339.463 125.98 336.221 124.612C332.978 123.193 329.457 122.18 325.657 121.572L321.857 112.604C326.518 110.02 331.61 107.537 337.133 105.156C342.706 102.724 348.178 100.799 353.549 99.38L352.105 101.584V98.088H319.881V89.728H386.533ZM351.877 106.676L353.473 108.348C351.243 109.007 349.09 109.716 347.013 110.476C344.986 111.236 342.959 112.072 340.933 112.984C338.906 113.845 336.803 114.808 334.625 115.872C336.702 116.277 338.855 116.987 341.085 118C343.365 118.963 345.569 120.229 347.697 121.8C349.875 123.371 351.826 125.195 353.549 127.272L352.181 128.108C352.13 127.196 352.054 126.183 351.953 125.068C351.902 123.953 351.877 122.763 351.877 121.496V106.676ZM383.341 117.392C383.341 119.064 382.986 120.66 382.277 122.18C381.618 123.7 380.453 124.941 378.781 125.904C377.109 126.867 374.778 127.348 371.789 127.348C370.725 127.348 369.737 127.323 368.825 127.272C367.963 127.171 367.153 127.044 366.393 126.892L366.697 118.532C366.95 118.583 367.254 118.633 367.609 118.684C368.014 118.684 368.521 118.684 369.129 118.684C370.953 118.684 372.143 118.38 372.701 117.772C373.258 117.113 373.537 116.328 373.537 115.416C373.537 113.693 372.447 112.173 370.269 110.856C368.09 109.539 364.898 108.525 360.693 107.816V99.532C364.847 100.089 368.622 101.153 372.017 102.724C375.462 104.244 378.198 106.245 380.225 108.728C382.302 111.16 383.341 114.048 383.341 117.392ZM345.181 157.216C343.459 157.216 341.685 156.887 339.861 156.228C337.987 155.62 336.416 154.632 335.149 153.264C333.883 151.896 333.249 150.072 333.249 147.792C333.249 145.005 334.313 142.776 336.441 141.104C338.519 139.432 341.559 138.596 345.561 138.596C349.209 138.596 352.604 139.052 355.745 139.964C358.887 140.927 362.028 142.345 365.169 144.22C368.311 146.095 371.706 148.451 375.354 151.288L369.958 157.596C367.019 154.911 364.207 152.656 361.521 150.832C358.836 149.008 356.277 147.64 353.845 146.728C351.413 145.816 349.108 145.36 346.929 145.36C345.359 145.36 344.244 145.613 343.585 146.12C342.876 146.627 342.521 147.285 342.521 148.096C342.521 149.008 342.825 149.667 343.433 150.072C344.041 150.477 344.877 150.68 345.941 150.68C347.208 150.68 348.247 150.376 349.057 149.768C349.817 149.16 350.4 148.375 350.805 147.412C351.211 146.5 351.489 145.512 351.641 144.448C351.793 143.435 351.869 142.472 351.869 141.56V135.784H361.901V139.508C361.901 141.129 361.724 142.953 361.369 144.98C360.964 147.007 360.204 148.932 359.089 150.756C357.924 152.631 356.227 154.176 353.997 155.392C351.768 156.608 348.829 157.216 345.181 157.216ZM412.709 89.728C412.658 88.1573 412.253 87.0427 411.493 86.384C410.733 85.6747 409.39 85.32 407.465 85.32H402.981C399.13 85.32 395.989 84.9653 393.557 84.256C391.175 83.496 389.301 82.356 387.933 80.836C386.97 79.772 386.261 78.5307 385.805 77.112C385.399 75.6427 385.197 73.9707 385.197 72.096C385.197 71.336 385.222 70.652 385.273 70.044C385.323 69.3853 385.425 68.6 385.577 67.688L395.077 68.296C395.026 68.752 394.975 69.1573 394.925 69.512C394.925 69.8667 394.925 70.196 394.925 70.5C394.925 71.564 395.026 72.5267 395.229 73.388C395.482 74.1987 395.887 74.8827 396.445 75.44C397.002 75.9467 397.711 76.3267 398.573 76.58C399.434 76.8333 400.827 76.96 402.753 76.96H407.541C410.53 76.96 412.886 77.188 414.609 77.644C416.382 78.1 417.877 78.9107 419.093 80.076C420.055 81.0387 420.79 82.3053 421.297 83.876C421.854 85.396 422.158 87.3467 422.209 89.728H412.709ZM405.793 100.14C410.454 100.14 414.153 100.849 416.889 102.268C419.675 103.636 421.677 105.384 422.893 107.512C424.109 109.64 424.717 111.819 424.717 114.048C424.717 118.203 423.399 121.395 420.765 123.624C418.181 125.803 414.507 127.272 409.745 128.032L407.997 124.916C410.53 125.575 413.038 126.385 415.521 127.348C418.003 128.311 420.461 129.451 422.893 130.768C425.375 132.085 427.807 133.58 430.189 135.252L424.869 142.32C422.487 140.597 419.954 139.001 417.269 137.532C414.634 136.063 411.822 134.745 408.833 133.58C405.894 132.364 402.803 131.3 399.561 130.388C396.318 129.476 392.898 128.741 389.301 128.184L390.973 120.204C392.746 120.66 394.469 121.015 396.141 121.268C397.863 121.521 399.586 121.648 401.309 121.648C404.551 121.648 407.135 121.344 409.061 120.736C410.986 120.077 412.379 119.191 413.241 118.076C414.153 116.961 414.609 115.644 414.609 114.124C414.609 112.3 413.899 110.831 412.481 109.716C411.113 108.601 409.162 108.044 406.629 108.044C405.159 108.044 403.969 108.171 403.057 108.424C402.195 108.677 401.562 109.083 401.157 109.64C400.802 110.147 400.625 110.78 400.625 111.54C400.625 111.793 400.675 112.097 400.777 112.452C400.878 112.807 400.979 113.111 401.081 113.364L391.657 114.732C391.353 113.972 391.099 113.111 390.897 112.148C390.694 111.135 390.593 110.197 390.593 109.336C390.593 107.512 391.201 105.916 392.417 104.548C393.633 103.129 395.381 102.04 397.661 101.28C399.941 100.52 402.651 100.14 405.793 100.14ZM396.825 104.472C396.571 102.8 395.811 101.356 394.545 100.14C393.278 98.924 391.454 98.0373 389.073 97.48L394.849 94.136L398.345 94.972C401.182 96.1373 403.234 97.4293 404.501 98.848C405.767 100.267 406.502 102.065 406.705 104.244L396.825 104.472ZM430.113 89.728V98.088H385.045V89.728H430.113Z" fill="#579AF4"/>
<path d="M484.013 89.728V98.088H476.717V137H466.685V112.984L468.585 116.252C467.572 114.985 466.635 114.023 465.773 113.364C464.963 112.655 464.177 112.3 463.417 112.3C462.809 112.3 462.252 112.477 461.745 112.832C461.239 113.187 460.631 113.896 459.921 114.96C459.212 116.024 458.173 117.645 456.805 119.824C455.387 122.053 454.044 123.877 452.777 125.296C451.511 126.664 450.193 127.652 448.825 128.26C447.508 128.868 445.963 129.172 444.189 129.172C442.669 129.172 441.2 128.919 439.781 128.412C438.363 127.905 436.969 127.019 435.601 125.752C434.284 124.435 432.941 122.585 431.573 120.204L438.565 115.872C439.579 117.493 440.44 118.659 441.149 119.368C441.859 120.027 442.695 120.356 443.657 120.356C444.316 120.356 444.924 120.204 445.481 119.9C446.089 119.596 446.773 118.912 447.533 117.848C448.344 116.733 449.357 115.011 450.573 112.68L452.473 110.704C453.841 108.171 455.133 106.397 456.349 105.384C457.565 104.371 459.06 103.864 460.833 103.864C462.201 103.864 463.417 104.193 464.481 104.852C465.596 105.46 466.837 106.423 468.205 107.74L466.989 108.044C466.939 107.081 466.863 106.093 466.761 105.08C466.711 104.016 466.685 102.977 466.685 101.964V98.088H428.685V89.728H484.013ZM447.837 118.304C447.381 115.163 446.9 112.68 446.393 110.856C445.887 108.981 445.051 107.537 443.885 106.524C442.669 105.46 441.048 104.675 439.021 104.168C436.995 103.611 434.436 103.155 431.345 102.8L434.157 94.06L439.553 96.796C442.441 97.3027 444.772 97.9107 446.545 98.62C448.319 99.3293 449.712 100.241 450.725 101.356C451.739 102.42 452.473 103.788 452.929 105.46C453.385 107.081 453.715 109.083 453.917 111.464L447.837 118.304ZM505.674 89.728V98.088H499.594L504.078 96.644C502.659 97.9107 501.519 99.1013 500.658 100.216C499.847 101.331 499.265 102.445 498.91 103.56C498.555 104.675 498.378 105.916 498.378 107.284C498.378 108.956 498.581 110.704 498.986 112.528C499.442 114.301 499.873 116.125 500.278 118C500.734 119.824 500.962 121.648 500.962 123.472C500.962 125.549 500.709 127.475 500.202 129.248C499.746 131.021 498.885 132.643 497.618 134.112C496.351 135.531 494.578 136.797 492.298 137.912C490.018 139.077 487.054 140.091 483.406 140.952L481.202 132.744C484.039 132.035 486.142 131.224 487.51 130.312C488.878 129.4 489.765 128.361 490.17 127.196C490.626 126.031 490.854 124.764 490.854 123.396C490.854 121.471 490.626 119.621 490.17 117.848C489.765 116.075 489.334 114.327 488.878 112.604C488.473 110.881 488.27 109.108 488.27 107.284C488.27 105.764 488.447 104.447 488.802 103.332C489.157 102.167 489.689 101.052 490.398 99.988C491.158 98.924 492.07 97.8093 493.134 96.644L492.222 98.088H482.494V89.728H505.674ZM528.79 89.728V98.088H521.494V137H511.462V103.256C510.854 101.685 509.992 100.444 508.878 99.532C507.763 98.5693 506.319 98.088 504.546 98.088H504.166V89.728H505.686C506.851 89.728 507.94 90.032 508.954 90.64C509.967 91.248 510.904 92.54 511.766 94.516C511.715 94.2627 511.639 93.68 511.538 92.768C511.487 91.856 511.462 91.0707 511.462 90.412V84.712H519.67L521.418 89.728H528.79ZM582.576 89.728V98.088H575.28V137H565.248V112.984L567.148 116.252C566.134 114.985 565.197 114.023 564.336 113.364C563.525 112.655 562.74 112.3 561.98 112.3C561.372 112.3 560.814 112.477 560.308 112.832C559.801 113.187 559.193 113.896 558.484 114.96C557.774 116.024 556.736 117.645 555.368 119.824C553.949 122.053 552.606 123.877 551.34 125.296C550.073 126.664 548.756 127.652 547.388 128.26C546.07 128.868 544.525 129.172 542.752 129.172C541.232 129.172 539.762 128.919 538.344 128.412C536.925 127.905 535.532 127.019 534.164 125.752C532.846 124.435 531.504 122.585 530.136 120.204L537.128 115.872C538.141 117.493 539.002 118.659 539.712 119.368C540.421 120.027 541.257 120.356 542.22 120.356C542.878 120.356 543.486 120.204 544.044 119.9C544.652 119.596 545.336 118.912 546.096 117.848C546.906 116.733 547.92 115.011 549.136 112.68L551.036 110.704C552.404 108.171 553.696 106.397 554.912 105.384C556.128 104.371 557.622 103.864 559.396 103.864C560.764 103.864 561.98 104.193 563.044 104.852C564.158 105.46 565.4 106.423 566.768 107.74L565.552 108.044C565.501 107.081 565.425 106.093 565.324 105.08C565.273 104.016 565.248 102.977 565.248 101.964V98.088H527.248V89.728H582.576ZM546.4 118.304C545.944 115.163 545.462 112.68 544.956 110.856C544.449 108.981 543.613 107.537 542.448 106.524C541.232 105.46 539.61 104.675 537.584 104.168C535.557 103.611 532.998 103.155 529.908 102.8L532.72 94.06L538.116 96.796C541.004 97.3027 543.334 97.9107 545.108 98.62C546.881 99.3293 548.274 100.241 549.288 101.356C550.301 102.42 551.036 103.788 551.492 105.46C551.948 107.081 552.277 109.083 552.48 111.464L546.4 118.304Z" fill="#27C990"/>
<path d="M183 122C183 91.6243 158.376 67 128 67C97.6243 67 73 91.6243 73 122" stroke="#579AF4" stroke-width="22.9167" stroke-linecap="round"/>
<path d="M183 177C213.376 177 238 152.376 238 122C238 91.6243 213.376 67 183 67C152.624 67 128 91.6243 128 122C128 152.376 152.624 177 183 177Z" stroke="#27C990" stroke-width="22.9167"/>
<path d="M183 122C183 152.376 158.376 177 128 177C97.6243 177 73 152.376 73 122" stroke="#579AF4" stroke-width="22.9167" stroke-linecap="round"/>
<path d="M139.458 118.517H171.542C174.073 118.517 176.125 116.465 176.125 113.934C176.125 111.402 174.073 109.35 171.542 109.35H139.458C136.927 109.35 134.875 111.402 134.875 113.934C134.875 116.465 136.927 118.517 139.458 118.517Z" fill="url(#paint1_linear_50_85)"/>
<path d="M139.473 134.558H171.557C174.088 134.558 176.14 132.506 176.14 129.975C176.14 127.444 174.088 125.392 171.557 125.392H139.473C136.942 125.392 134.89 127.444 134.89 129.975C134.89 132.506 136.942 134.558 139.473 134.558Z" fill="url(#paint2_linear_50_85)"/>
<defs>
<linearGradient id="paint0_linear_50_85" x1="277" y1="176.5" x2="582" y2="176.5" gradientUnits="userSpaceOnUse">
<stop stop-color="#579AF4"/>
<stop offset="1" stop-color="#27C990"/>
</linearGradient>
<linearGradient id="paint1_linear_50_85" x1="176.125" y1="113.934" x2="134.875" y2="113.934" gradientUnits="userSpaceOnUse">
<stop offset="0.2" stop-color="#579AF4"/>
<stop offset="0.8" stop-color="#27C990"/>
</linearGradient>
<linearGradient id="paint2_linear_50_85" x1="176.14" y1="129.975" x2="134.89" y2="129.975" gradientUnits="userSpaceOnUse">
<stop offset="0.2" stop-color="#579AF4"/>
<stop offset="0.8" stop-color="#27C990"/>
</linearGradient>
</defs>
</svg>
