<svg width="750" height="250" viewBox="0 0 750 250" fill="none" xmlns="http://www.w3.org/2000/svg">
<path d="M658 67H614C607.373 67 602 72.3726 602 79V97C602 103.627 607.373 109 614 109H658C664.627 109 670 103.627 670 97V79C670 72.3726 664.627 67 658 67Z" fill="#579AF4"/>
<path d="M620.796 96V78.96H627.42C629.532 78.96 631.148 79.336 632.268 80.088C633.388 80.824 633.948 81.992 633.948 83.592C633.948 84.296 633.804 84.912 633.516 85.44C633.228 85.952 632.804 86.36 632.244 86.664C631.7 86.968 631.036 87.152 630.252 87.216V87.168C631.676 87.264 632.764 87.68 633.516 88.416C634.284 89.136 634.668 90.096 634.668 91.296C634.668 92.88 634.108 94.064 632.988 94.848C631.884 95.616 630.3 96 628.236 96H620.796ZM624.444 93.024H628.068C628.948 93.024 629.652 92.848 630.18 92.496C630.724 92.128 630.996 91.584 630.996 90.864C630.996 90.144 630.724 89.6 630.18 89.232C629.652 88.848 628.948 88.656 628.068 88.656H624.444V93.024ZM624.444 86.016H627.324C628.22 86.016 628.932 85.84 629.46 85.488C630.004 85.136 630.276 84.632 630.276 83.976C630.276 83.272 630.012 82.76 629.484 82.44C628.972 82.104 628.252 81.936 627.324 81.936H624.444V86.016ZM637.483 96V78.96H643.363C646.131 78.96 648.259 79.704 649.747 81.192C651.235 82.664 651.979 84.768 651.979 87.504C651.979 90.224 651.243 92.32 649.771 93.792C648.315 95.264 646.227 96 643.507 96H637.483ZM641.131 92.928H643.363C645.011 92.928 646.227 92.488 647.011 91.608C647.811 90.712 648.211 89.336 648.211 87.48C648.211 85.624 647.811 84.256 647.011 83.376C646.227 82.48 645.011 82.032 643.363 82.032H641.131V92.928Z" fill="white"/>
<path d="M277.184 172V160.64H281.6C283.008 160.64 284.085 160.891 284.832 161.392C285.579 161.883 285.952 162.661 285.952 163.728C285.952 164.197 285.856 164.608 285.664 164.96C285.472 165.301 285.189 165.573 284.816 165.776C284.453 165.979 284.011 166.101 283.488 166.144V166.112C284.437 166.176 285.163 166.453 285.664 166.944C286.176 167.424 286.432 168.064 286.432 168.864C286.432 169.92 286.059 170.709 285.312 171.232C284.576 171.744 283.52 172 282.144 172H277.184ZM279.616 170.016H282.032C282.619 170.016 283.088 169.899 283.44 169.664C283.803 169.419 283.984 169.056 283.984 168.576C283.984 168.096 283.803 167.733 283.44 167.488C283.088 167.232 282.619 167.104 282.032 167.104H279.616V170.016ZM279.616 165.344H281.536C282.133 165.344 282.608 165.227 282.96 164.992C283.323 164.757 283.504 164.421 283.504 163.984C283.504 163.515 283.328 163.173 282.976 162.96C282.635 162.736 282.155 162.624 281.536 162.624H279.616V165.344ZM287.054 172L291.15 160.64H294.03L298.126 172H295.598L294.766 169.584H290.398L289.566 172H287.054ZM291.086 167.584H294.094L292.59 163.2L291.086 167.584ZM299.215 172V160.64H301.903L306.415 168.48V160.64H308.847V172H306.127L301.647 164.432V172H299.215ZM315.701 172.256C314.603 172.256 313.664 172.005 312.885 171.504C312.107 171.003 311.504 170.309 311.077 169.424C310.661 168.528 310.453 167.499 310.453 166.336C310.453 165.195 310.667 164.176 311.093 163.28C311.52 162.384 312.133 161.68 312.933 161.168C313.744 160.645 314.715 160.384 315.845 160.384C316.827 160.384 317.653 160.549 318.325 160.88C319.008 161.2 319.552 161.659 319.957 162.256C320.363 162.853 320.645 163.557 320.805 164.368L318.293 164.48C318.176 163.851 317.925 163.355 317.541 162.992C317.168 162.619 316.608 162.432 315.861 162.432C315.211 162.432 314.667 162.603 314.229 162.944C313.803 163.285 313.483 163.749 313.269 164.336C313.067 164.923 312.965 165.589 312.965 166.336C312.965 167.093 313.067 167.765 313.269 168.352C313.483 168.928 313.803 169.381 314.229 169.712C314.667 170.043 315.227 170.208 315.909 170.208C316.411 170.208 316.843 170.107 317.205 169.904C317.579 169.701 317.867 169.424 318.069 169.072C318.283 168.72 318.411 168.32 318.453 167.872H315.861V166.096H320.837V172H319.333L319.205 169.568L319.493 169.696C319.387 170.197 319.152 170.64 318.789 171.024C318.427 171.408 317.979 171.712 317.445 171.936C316.923 172.149 316.341 172.256 315.701 172.256ZM322.778 172V160.64H325.21V171.344L323.866 169.952H330.442V172H322.778ZM331.007 172L335.103 160.64H337.983L342.079 172H339.551L338.719 169.584H334.351L333.519 172H331.007ZM335.039 167.584H338.047L336.543 163.2L335.039 167.584ZM343.168 172V160.64H347.088C348.934 160.64 350.352 161.136 351.344 162.128C352.336 163.109 352.832 164.512 352.832 166.336C352.832 168.149 352.342 169.547 351.36 170.528C350.39 171.509 348.998 172 347.184 172H343.168ZM345.6 169.952H347.088C348.187 169.952 348.998 169.659 349.52 169.072C350.054 168.475 350.32 167.557 350.32 166.32C350.32 165.083 350.054 164.171 349.52 163.584C348.998 162.987 348.187 162.688 347.088 162.688H345.6V169.952ZM354.434 172V160.64H362.338V162.688H356.866V165.296H362.146V167.312H356.866V169.952H362.466V172H354.434ZM368.883 172.256C367.902 172.256 367.059 172.091 366.355 171.76C365.651 171.429 365.102 170.965 364.707 170.368C364.312 169.771 364.088 169.067 364.035 168.256L366.483 168.144C366.547 168.592 366.675 168.976 366.867 169.296C367.07 169.605 367.336 169.84 367.667 170C368.008 170.16 368.424 170.24 368.915 170.24C369.32 170.24 369.662 170.192 369.939 170.096C370.227 170 370.446 169.856 370.595 169.664C370.744 169.461 370.819 169.216 370.819 168.928C370.819 168.661 370.755 168.432 370.627 168.24C370.499 168.037 370.254 167.856 369.891 167.696C369.528 167.525 368.995 167.36 368.291 167.2C367.32 166.976 366.536 166.725 365.939 166.448C365.352 166.171 364.926 165.824 364.659 165.408C364.392 164.981 364.259 164.448 364.259 163.808C364.259 163.125 364.424 162.528 364.755 162.016C365.096 161.504 365.587 161.104 366.227 160.816C366.867 160.528 367.63 160.384 368.515 160.384C369.454 160.384 370.248 160.549 370.899 160.88C371.55 161.211 372.056 161.664 372.419 162.24C372.792 162.816 373.016 163.477 373.091 164.224L370.659 164.352C370.627 163.957 370.52 163.616 370.339 163.328C370.158 163.029 369.912 162.8 369.603 162.64C369.294 162.48 368.92 162.4 368.483 162.4C367.928 162.4 367.491 162.523 367.171 162.768C366.862 163.013 366.707 163.333 366.707 163.728C366.707 164.005 366.776 164.24 366.915 164.432C367.064 164.613 367.304 164.773 367.635 164.912C367.976 165.051 368.456 165.184 369.075 165.312C370.131 165.525 370.963 165.797 371.571 166.128C372.19 166.448 372.627 166.832 372.883 167.28C373.139 167.728 373.267 168.24 373.267 168.816C373.267 169.52 373.086 170.133 372.723 170.656C372.371 171.168 371.864 171.563 371.203 171.84C370.552 172.117 369.779 172.256 368.883 172.256ZM375.028 172V160.64H377.46V166.032L376.388 165.264H382.852L381.764 166.032V160.64H384.196V172H381.764V166.544L382.852 167.312H376.388L377.46 166.544V172H375.028ZM395.224 172.256C394.072 172.256 393.08 172.016 392.248 171.536C391.426 171.056 390.792 170.373 390.344 169.488C389.906 168.603 389.688 167.552 389.688 166.336C389.688 165.12 389.906 164.069 390.344 163.184C390.792 162.288 391.426 161.6 392.248 161.12C393.08 160.629 394.072 160.384 395.224 160.384C396.376 160.384 397.362 160.629 398.184 161.12C399.016 161.6 399.65 162.288 400.088 163.184C400.536 164.069 400.76 165.12 400.76 166.336C400.76 167.552 400.536 168.603 400.088 169.488C399.65 170.373 399.016 171.056 398.184 171.536C397.362 172.016 396.376 172.256 395.224 172.256ZM395.208 170.208C395.848 170.208 396.392 170.059 396.84 169.76C397.298 169.451 397.645 169.008 397.88 168.432C398.125 167.856 398.248 167.157 398.248 166.336C398.248 165.515 398.125 164.816 397.88 164.24C397.645 163.653 397.298 163.205 396.84 162.896C396.392 162.587 395.848 162.432 395.208 162.432C394.578 162.432 394.04 162.587 393.592 162.896C393.144 163.205 392.797 163.653 392.552 164.24C392.317 164.816 392.2 165.515 392.2 166.336C392.2 167.157 392.317 167.856 392.552 168.432C392.797 169.008 393.144 169.451 393.592 169.76C394.05 170.059 394.589 170.208 395.208 170.208ZM402.372 172V160.64H406.916C408.281 160.64 409.348 160.971 410.116 161.632C410.894 162.293 411.284 163.2 411.284 164.352C411.284 165.109 411.108 165.771 410.756 166.336C410.414 166.891 409.913 167.323 409.252 167.632C408.601 167.931 407.822 168.08 406.916 168.08H404.804V172H402.372ZM404.804 166.032H406.772C407.412 166.032 407.908 165.893 408.26 165.616C408.612 165.328 408.788 164.907 408.788 164.352C408.788 163.808 408.612 163.397 408.26 163.12C407.918 162.832 407.422 162.688 406.772 162.688H404.804V166.032ZM412.809 172V160.64H420.713V162.688H415.241V165.296H420.521V167.312H415.241V169.952H420.841V172H412.809ZM422.668 172V160.64H425.356L429.868 168.48V160.64H432.3V172H429.58L425.1 164.432V172H422.668ZM440.693 172V162.688H437.301V160.64H446.549V162.688H443.141V172H440.693ZM447.59 172V160.64H455.494V162.688H450.022V165.296H455.302V167.312H450.022V169.952H455.622V172H447.59ZM462.359 172.256C461.325 172.256 460.402 172.021 459.591 171.552C458.791 171.083 458.162 170.405 457.703 169.52C457.255 168.635 457.031 167.573 457.031 166.336C457.031 165.131 457.25 164.085 457.687 163.2C458.125 162.304 458.749 161.611 459.559 161.12C460.37 160.629 461.319 160.384 462.407 160.384C463.89 160.384 465.042 160.752 465.863 161.488C466.695 162.213 467.229 163.253 467.463 164.608L464.935 164.704C464.807 163.989 464.53 163.435 464.103 163.04C463.677 162.635 463.111 162.432 462.407 162.432C461.799 162.432 461.282 162.592 460.855 162.912C460.429 163.232 460.103 163.685 459.879 164.272C459.655 164.859 459.543 165.547 459.543 166.336C459.543 167.136 459.655 167.829 459.879 168.416C460.114 168.992 460.445 169.435 460.871 169.744C461.298 170.053 461.805 170.208 462.391 170.208C463.159 170.208 463.751 169.995 464.167 169.568C464.594 169.131 464.861 168.528 464.967 167.76L467.511 167.856C467.362 168.784 467.069 169.573 466.631 170.224C466.194 170.875 465.618 171.376 464.903 171.728C464.199 172.08 463.351 172.256 462.359 172.256ZM469.106 172V160.64H471.538V166.032L470.466 165.264H476.93L475.842 166.032V160.64H478.274V172H475.842V166.544L476.93 167.312H470.466L471.538 166.544V172H469.106ZM489.094 172.256C488.059 172.256 487.136 172.021 486.326 171.552C485.526 171.083 484.896 170.405 484.438 169.52C483.99 168.635 483.766 167.573 483.766 166.336C483.766 165.131 483.984 164.085 484.422 163.2C484.859 162.304 485.483 161.611 486.294 161.12C487.104 160.629 488.054 160.384 489.142 160.384C490.624 160.384 491.776 160.752 492.598 161.488C493.43 162.213 493.963 163.253 494.198 164.608L491.67 164.704C491.542 163.989 491.264 163.435 490.838 163.04C490.411 162.635 489.846 162.432 489.142 162.432C488.534 162.432 488.016 162.592 487.59 162.912C487.163 163.232 486.838 163.685 486.614 164.272C486.39 164.859 486.278 165.547 486.278 166.336C486.278 167.136 486.39 167.829 486.614 168.416C486.848 168.992 487.179 169.435 487.606 169.744C488.032 170.053 488.539 170.208 489.126 170.208C489.894 170.208 490.486 169.995 490.902 169.568C491.328 169.131 491.595 168.528 491.702 167.76L494.246 167.856C494.096 168.784 493.803 169.573 493.366 170.224C492.928 170.875 492.352 171.376 491.638 171.728C490.934 172.08 490.086 172.256 489.094 172.256ZM501.052 172.256C499.9 172.256 498.908 172.016 498.076 171.536C497.254 171.056 496.62 170.373 496.172 169.488C495.734 168.603 495.516 167.552 495.516 166.336C495.516 165.12 495.734 164.069 496.172 163.184C496.62 162.288 497.254 161.6 498.076 161.12C498.908 160.629 499.9 160.384 501.052 160.384C502.204 160.384 503.19 160.629 504.012 161.12C504.844 161.6 505.478 162.288 505.916 163.184C506.364 164.069 506.588 165.12 506.588 166.336C506.588 167.552 506.364 168.603 505.916 169.488C505.478 170.373 504.844 171.056 504.012 171.536C503.19 172.016 502.204 172.256 501.052 172.256ZM501.036 170.208C501.676 170.208 502.22 170.059 502.668 169.76C503.126 169.451 503.473 169.008 503.708 168.432C503.953 167.856 504.076 167.157 504.076 166.336C504.076 165.515 503.953 164.816 503.708 164.24C503.473 163.653 503.126 163.205 502.668 162.896C502.22 162.587 501.676 162.432 501.036 162.432C500.406 162.432 499.868 162.587 499.42 162.896C498.972 163.205 498.625 163.653 498.38 164.24C498.145 164.816 498.028 165.515 498.028 166.336C498.028 167.157 498.145 167.856 498.38 168.432C498.625 169.008 498.972 169.451 499.42 169.76C499.878 170.059 500.417 170.208 501.036 170.208ZM513.474 172.256C512.322 172.256 511.33 172.016 510.498 171.536C509.676 171.056 509.042 170.373 508.594 169.488C508.156 168.603 507.938 167.552 507.938 166.336C507.938 165.12 508.156 164.069 508.594 163.184C509.042 162.288 509.676 161.6 510.498 161.12C511.33 160.629 512.322 160.384 513.474 160.384C514.626 160.384 515.612 160.629 516.434 161.12C517.266 161.6 517.9 162.288 518.338 163.184C518.786 164.069 519.01 165.12 519.01 166.336C519.01 167.552 518.786 168.603 518.338 169.488C517.9 170.373 517.266 171.056 516.434 171.536C515.612 172.016 514.626 172.256 513.474 172.256ZM513.458 170.208C514.098 170.208 514.642 170.059 515.09 169.76C515.548 169.451 515.895 169.008 516.13 168.432C516.375 167.856 516.498 167.157 516.498 166.336C516.498 165.515 516.375 164.816 516.13 164.24C515.895 163.653 515.548 163.205 515.09 162.896C514.642 162.587 514.098 162.432 513.458 162.432C512.828 162.432 512.29 162.587 511.842 162.896C511.394 163.205 511.047 163.653 510.802 164.24C510.567 164.816 510.45 165.515 510.45 166.336C510.45 167.157 510.567 167.856 510.802 168.432C511.047 169.008 511.394 169.451 511.842 169.76C512.3 170.059 512.839 170.208 513.458 170.208ZM520.622 172V160.64H525.166C526.531 160.64 527.598 160.971 528.366 161.632C529.144 162.293 529.534 163.2 529.534 164.352C529.534 165.109 529.358 165.771 529.006 166.336C528.664 166.891 528.163 167.323 527.502 167.632C526.851 167.931 526.072 168.08 525.166 168.08H523.054V172H520.622ZM523.054 166.032H525.022C525.662 166.032 526.158 165.893 526.51 165.616C526.862 165.328 527.038 164.907 527.038 164.352C527.038 163.808 526.862 163.397 526.51 163.12C526.168 162.832 525.672 162.688 525.022 162.688H523.054V166.032ZM531.059 172V160.64H538.963V162.688H533.491V165.296H538.771V167.312H533.491V169.952H539.091V172H531.059ZM540.965 172V160.64H545.941C546.773 160.64 547.493 160.779 548.101 161.056C548.72 161.333 549.195 161.728 549.525 162.24C549.856 162.741 550.021 163.339 550.021 164.032C550.021 164.555 549.909 165.019 549.685 165.424C549.472 165.829 549.173 166.16 548.789 166.416C548.416 166.672 547.984 166.832 547.493 166.896L547.445 166.752C548.203 166.752 548.779 166.917 549.173 167.248C549.568 167.568 549.792 168.064 549.845 168.736L550.133 172H547.653L547.445 169.12C547.413 168.683 547.275 168.363 547.029 168.16C546.795 167.947 546.389 167.84 545.813 167.84H543.397V172H540.965ZM543.397 165.808H545.669C546.256 165.808 546.709 165.675 547.029 165.408C547.36 165.131 547.525 164.741 547.525 164.24C547.525 163.728 547.36 163.344 547.029 163.088C546.699 162.821 546.219 162.688 545.589 162.688H543.397V165.808ZM551.085 172L555.181 160.64H558.061L562.157 172H559.629L558.797 169.584H554.429L553.597 172H551.085ZM555.117 167.584H558.125L556.621 163.2L555.117 167.584ZM564.443 172V162.688H561.051V160.64H570.299V162.688H566.891V172H564.443ZM571.34 172V160.64H573.772V172H571.34ZM578.947 172L574.851 160.64H577.363L580.387 169.264L583.411 160.64H585.923L581.811 172H578.947ZM586.981 172V160.64H594.885V162.688H589.413V165.296H594.693V167.312H589.413V169.952H595.013V172H586.981Z" fill="url(#paint0_linear_50_30)"/>
<path d="M277.18 137V87.3H311.76V96.26H287.82V107.67H310.92V116.49H287.82V128.04H312.32V137H277.18ZM354.28 147.5H343.78V129.09L344.69 129.65C344.176 131.33 343.336 132.777 342.17 133.99C341.05 135.203 339.696 136.16 338.11 136.86C336.523 137.513 334.82 137.84 333 137.84C329.5 137.84 326.56 136.977 324.18 135.25C321.846 133.523 320.073 131.167 318.86 128.18C317.693 125.193 317.11 121.88 317.11 118.24C317.11 114.553 317.693 111.24 318.86 108.3C320.073 105.313 321.846 102.957 324.18 101.23C326.513 99.5033 329.43 98.64 332.93 98.64C335.776 98.64 338.25 99.3633 340.35 100.81C342.45 102.257 343.943 104.333 344.83 107.04L343.99 107.39L344.2 99.48H354.28V147.5ZM335.87 129.79C337.55 129.79 338.973 129.37 340.14 128.53C341.306 127.643 342.193 126.337 342.8 124.61C343.453 122.883 343.78 120.76 343.78 118.24C343.78 115.72 343.453 113.597 342.8 111.87C342.193 110.143 341.283 108.86 340.07 108.02C338.903 107.133 337.503 106.69 335.87 106.69C333.396 106.69 331.436 107.717 329.99 109.77C328.59 111.823 327.89 114.647 327.89 118.24C327.89 121.833 328.59 124.657 329.99 126.71C331.436 128.763 333.396 129.79 335.87 129.79ZM375.825 137.84C371.951 137.84 368.918 136.603 366.725 134.13C364.578 131.61 363.505 128.11 363.505 123.63V99.48H374.005V121.18C374.005 124.073 374.448 126.197 375.335 127.55C376.221 128.857 377.621 129.51 379.535 129.51C381.681 129.51 383.338 128.787 384.505 127.34C385.718 125.847 386.325 123.63 386.325 120.69V99.48H396.825V137H387.235L386.955 126.22L388.285 126.5C387.725 130.233 386.395 133.057 384.295 134.97C382.195 136.883 379.371 137.84 375.825 137.84ZM405.477 137V99.48H415.977V137H405.477ZM405.267 94.86V86.46H416.117V94.86H405.267Z" fill="#579AF4"/>
<path d="M444.301 138.12C440.008 138.12 436.321 137.397 433.241 135.95C430.161 134.503 427.758 132.473 426.031 129.86C424.305 127.247 423.325 124.167 423.091 120.62L433.801 120.13C434.081 122.09 434.641 123.77 435.481 125.17C436.368 126.523 437.535 127.55 438.981 128.25C440.475 128.95 442.295 129.3 444.441 129.3C446.215 129.3 447.708 129.09 448.921 128.67C450.181 128.25 451.138 127.62 451.791 126.78C452.445 125.893 452.771 124.82 452.771 123.56C452.771 122.393 452.491 121.39 451.931 120.55C451.371 119.663 450.298 118.87 448.711 118.17C447.125 117.423 444.791 116.7 441.711 116C437.465 115.02 434.035 113.923 431.421 112.71C428.855 111.497 426.988 109.98 425.821 108.16C424.655 106.293 424.071 103.96 424.071 101.16C424.071 98.1733 424.795 95.56 426.241 93.32C427.735 91.08 429.881 89.33 432.681 88.07C435.481 86.81 438.818 86.18 442.691 86.18C446.798 86.18 450.275 86.9033 453.121 88.35C455.968 89.7967 458.185 91.78 459.771 94.3C461.405 96.82 462.385 99.7133 462.711 102.98L452.071 103.54C451.931 101.813 451.465 100.32 450.671 99.06C449.878 97.7533 448.805 96.75 447.451 96.05C446.098 95.35 444.465 95 442.551 95C440.125 95 438.211 95.5367 436.811 96.61C435.458 97.6833 434.781 99.0833 434.781 100.81C434.781 102.023 435.085 103.05 435.691 103.89C436.345 104.683 437.395 105.383 438.841 105.99C440.335 106.597 442.435 107.18 445.141 107.74C449.761 108.673 453.401 109.863 456.061 111.31C458.768 112.71 460.681 114.39 461.801 116.35C462.921 118.31 463.481 120.55 463.481 123.07C463.481 126.15 462.688 128.833 461.101 131.12C459.561 133.36 457.345 135.087 454.451 136.3C451.605 137.513 448.221 138.12 444.301 138.12ZM483.053 137.84C479.179 137.84 476.006 136.953 473.533 135.18C471.106 133.36 469.893 130.84 469.893 127.62C469.893 124.307 470.919 121.763 472.973 119.99C475.073 118.17 478.153 116.84 482.213 116L494.323 113.62C494.323 111.193 493.763 109.373 492.643 108.16C491.569 106.9 490.006 106.27 487.953 106.27C485.946 106.27 484.383 106.737 483.263 107.67C482.143 108.557 481.419 109.887 481.093 111.66L470.523 111.17C471.223 107.063 473.066 103.96 476.053 101.86C479.086 99.7133 483.053 98.64 487.953 98.64C493.553 98.64 497.753 99.97 500.553 102.63C503.399 105.29 504.823 109.187 504.823 114.32V127.13C504.823 128.203 504.986 128.927 505.313 129.3C505.686 129.627 506.223 129.79 506.923 129.79H507.973V137C507.646 137.093 507.109 137.187 506.363 137.28C505.663 137.373 504.963 137.42 504.263 137.42C502.769 137.42 501.369 137.163 500.063 136.65C498.803 136.137 497.776 135.273 496.983 134.06C496.189 132.8 495.793 131.027 495.793 128.74L496.703 129.44C496.236 131.12 495.396 132.59 494.183 133.85C493.016 135.11 491.476 136.09 489.563 136.79C487.696 137.49 485.526 137.84 483.053 137.84ZM485.573 130.63C487.299 130.63 488.816 130.303 490.123 129.65C491.429 128.95 492.456 127.947 493.203 126.64C493.949 125.333 494.323 123.793 494.323 122.02V120.2L485.783 122.02C484.103 122.347 482.819 122.907 481.933 123.7C481.093 124.447 480.673 125.427 480.673 126.64C480.673 127.9 481.093 128.88 481.933 129.58C482.773 130.28 483.986 130.63 485.573 130.63ZM524.479 137.84C520.605 137.84 517.432 136.953 514.959 135.18C512.532 133.36 511.319 130.84 511.319 127.62C511.319 124.307 512.345 121.763 514.399 119.99C516.499 118.17 519.579 116.84 523.639 116L535.749 113.62C535.749 111.193 535.189 109.373 534.069 108.16C532.995 106.9 531.432 106.27 529.379 106.27C527.372 106.27 525.809 106.737 524.689 107.67C523.569 108.557 522.845 109.887 522.519 111.66L511.949 111.17C512.649 107.063 514.492 103.96 517.479 101.86C520.512 99.7133 524.479 98.64 529.379 98.64C534.979 98.64 539.179 99.97 541.979 102.63C544.825 105.29 546.249 109.187 546.249 114.32V127.13C546.249 128.203 546.412 128.927 546.739 129.3C547.112 129.627 547.649 129.79 548.349 129.79H549.399V137C549.072 137.093 548.535 137.187 547.789 137.28C547.089 137.373 546.389 137.42 545.689 137.42C544.195 137.42 542.795 137.163 541.489 136.65C540.229 136.137 539.202 135.273 538.409 134.06C537.615 132.8 537.219 131.027 537.219 128.74L538.129 129.44C537.662 131.12 536.822 132.59 535.609 133.85C534.442 135.11 532.902 136.09 530.989 136.79C529.122 137.49 526.952 137.84 524.479 137.84ZM526.999 130.63C528.725 130.63 530.242 130.303 531.549 129.65C532.855 128.95 533.882 127.947 534.629 126.64C535.375 125.333 535.749 123.793 535.749 122.02V120.2L527.209 122.02C525.529 122.347 524.245 122.907 523.359 123.7C522.519 124.447 522.099 125.427 522.099 126.64C522.099 127.9 522.519 128.88 523.359 129.58C524.199 130.28 525.412 130.63 526.999 130.63ZM575.141 138.12C570.848 138.12 567.161 137.397 564.081 135.95C561.001 134.503 558.598 132.473 556.871 129.86C555.144 127.247 554.164 124.167 553.931 120.62L564.641 120.13C564.921 122.09 565.481 123.77 566.321 125.17C567.208 126.523 568.374 127.55 569.821 128.25C571.314 128.95 573.134 129.3 575.281 129.3C577.054 129.3 578.548 129.09 579.761 128.67C581.021 128.25 581.978 127.62 582.631 126.78C583.284 125.893 583.611 124.82 583.611 123.56C583.611 122.393 583.331 121.39 582.771 120.55C582.211 119.663 581.138 118.87 579.551 118.17C577.964 117.423 575.631 116.7 572.551 116C568.304 115.02 564.874 113.923 562.261 112.71C559.694 111.497 557.828 109.98 556.661 108.16C555.494 106.293 554.911 103.96 554.911 101.16C554.911 98.1733 555.634 95.56 557.081 93.32C558.574 91.08 560.721 89.33 563.521 88.07C566.321 86.81 569.658 86.18 573.531 86.18C577.638 86.18 581.114 86.9033 583.961 88.35C586.808 89.7967 589.024 91.78 590.611 94.3C592.244 96.82 593.224 99.7133 593.551 102.98L582.911 103.54C582.771 101.813 582.304 100.32 581.511 99.06C580.718 97.7533 579.644 96.75 578.291 96.05C576.938 95.35 575.304 95 573.391 95C570.964 95 569.051 95.5367 567.651 96.61C566.298 97.6833 565.621 99.0833 565.621 100.81C565.621 102.023 565.924 103.05 566.531 103.89C567.184 104.683 568.234 105.383 569.681 105.99C571.174 106.597 573.274 107.18 575.981 107.74C580.601 108.673 584.241 109.863 586.901 111.31C589.608 112.71 591.521 114.39 592.641 116.35C593.761 118.31 594.321 120.55 594.321 123.07C594.321 126.15 593.528 128.833 591.941 131.12C590.401 133.36 588.184 135.087 585.291 136.3C582.444 137.513 579.061 138.12 575.141 138.12Z" fill="#27C990"/>
<path d="M183 122C183 91.6243 158.376 67 128 67C97.6243 67 73 91.6243 73 122" stroke="#579AF4" stroke-width="22.9167" stroke-linecap="round"/>
<path d="M183 177C213.376 177 238 152.376 238 122C238 91.6243 213.376 67 183 67C152.624 67 128 91.6243 128 122C128 152.376 152.624 177 183 177Z" stroke="#27C990" stroke-width="22.9167"/>
<path d="M183 122C183 152.376 158.376 177 128 177C97.6243 177 73 152.376 73 122" stroke="#579AF4" stroke-width="22.9167" stroke-linecap="round"/>
<path d="M139.458 118.517H171.542C174.073 118.517 176.125 116.465 176.125 113.934C176.125 111.402 174.073 109.35 171.542 109.35H139.458C136.927 109.35 134.875 111.402 134.875 113.934C134.875 116.465 136.927 118.517 139.458 118.517Z" fill="url(#paint1_linear_50_30)"/>
<path d="M139.473 134.558H171.557C174.088 134.558 176.14 132.506 176.14 129.975C176.14 127.444 174.088 125.392 171.557 125.392H139.473C136.942 125.392 134.89 127.444 134.89 129.975C134.89 132.506 136.942 134.558 139.473 134.558Z" fill="url(#paint2_linear_50_30)"/>
<defs>
<linearGradient id="paint0_linear_50_30" x1="276" y1="166.5" x2="596" y2="166.5" gradientUnits="userSpaceOnUse">
<stop stop-color="#579AF4"/>
<stop offset="1" stop-color="#27C990"/>
</linearGradient>
<linearGradient id="paint1_linear_50_30" x1="176.125" y1="113.934" x2="134.875" y2="113.934" gradientUnits="userSpaceOnUse">
<stop offset="0.2" stop-color="#579AF4"/>
<stop offset="0.8" stop-color="#27C990"/>
</linearGradient>
<linearGradient id="paint2_linear_50_30" x1="176.14" y1="129.975" x2="134.89" y2="129.975" gradientUnits="userSpaceOnUse">
<stop offset="0.2" stop-color="#579AF4"/>
<stop offset="0.8" stop-color="#27C990"/>
</linearGradient>
</defs>
</svg>
